<svg xmlns="http://www.w3.org/2000/svg" width="172.154" height="47.702" viewBox="0 0 172.154 47.702">
  <g id="Group_48" data-name="Group 48" transform="translate(-1161.562 -741.605)">
    <path id="Path_41" data-name="Path 41" d="M8.1.36A8.748,8.748,0,0,1,4.62-.285,6.011,6.011,0,0,1,2.22-2.07,5.168,5.168,0,0,1,1.14-4.71H5.01a2.492,2.492,0,0,0,.975,1.485A3.263,3.263,0,0,0,8.04-2.61a2.766,2.766,0,0,0,1.845-.51,1.52,1.52,0,0,0,.585-1.17,1.288,1.288,0,0,0-.84-1.3A14.8,14.8,0,0,0,7.29-6.27q-.96-.21-1.95-.51a9,9,0,0,1-1.815-.765,3.967,3.967,0,0,1-1.335-1.2,3.107,3.107,0,0,1-.51-1.815,4.218,4.218,0,0,1,1.575-3.33A6.594,6.594,0,0,1,7.68-15.24a6.665,6.665,0,0,1,4.215,1.23,4.985,4.985,0,0,1,1.875,3.39H10.14q-.33-1.65-2.49-1.65a2.825,2.825,0,0,0-1.665.42A1.253,1.253,0,0,0,5.4-10.8q0,.66.87,1.05a12.778,12.778,0,0,0,2.31.72q1.56.36,2.865.795a4.815,4.815,0,0,1,2.085,1.29A3.5,3.5,0,0,1,14.31-4.5a4.178,4.178,0,0,1-.72,2.49A4.974,4.974,0,0,1,11.43-.27,8.109,8.109,0,0,1,8.1.36ZM22.95,0A5.786,5.786,0,0,1,19.2-1.14q-1.41-1.14-1.41-4.05v-6.48H15.24v-3.21h2.55l.45-3.99h3.39v3.99h4.02v3.21H21.63v6.51a1.911,1.911,0,0,0,.465,1.485A2.46,2.46,0,0,0,23.7-3.27h1.86V0ZM34.8.36a7.664,7.664,0,0,1-3.885-.99,7.268,7.268,0,0,1-2.73-2.745A8.036,8.036,0,0,1,27.18-7.44a7.942,7.942,0,0,1,1.02-4.065,7.379,7.379,0,0,1,2.745-2.745,7.664,7.664,0,0,1,3.885-.99,7.6,7.6,0,0,1,3.855.99,7.268,7.268,0,0,1,2.73,2.745,8.036,8.036,0,0,1,1,4.065,8.036,8.036,0,0,1-1,4.065A7.237,7.237,0,0,1,38.67-.63,7.687,7.687,0,0,1,34.8.36Zm0-3.33A3.549,3.549,0,0,0,37.41-4.1,4.577,4.577,0,0,0,38.52-7.44a4.577,4.577,0,0,0-1.11-3.345,3.516,3.516,0,0,0-2.58-1.125,3.534,3.534,0,0,0-2.625,1.125,4.616,4.616,0,0,0-1.1,3.345,4.616,4.616,0,0,0,1.1,3.345A3.5,3.5,0,0,0,34.8-2.97ZM44.94,0V-14.88h3.42l.36,2.79a6.226,6.226,0,0,1,2.205-2.3,6.161,6.161,0,0,1,3.285-.855v4.05H53.13a6.1,6.1,0,0,0-2.25.39,3.031,3.031,0,0,0-1.545,1.35,5.362,5.362,0,0,0-.555,2.67V0ZM57.99-17.19a2.428,2.428,0,0,1-1.725-.63,2.082,2.082,0,0,1-.675-1.59,2.035,2.035,0,0,1,.675-1.575A2.463,2.463,0,0,1,57.99-21.6a2.462,2.462,0,0,1,1.725.615,2.035,2.035,0,0,1,.675,1.575,2.082,2.082,0,0,1-.675,1.59A2.428,2.428,0,0,1,57.99-17.19ZM56.07,0V-14.88h3.84V0Zm7.65,0V-11.67H61.68v-3.21h2.04v-1.74a4.753,4.753,0,0,1,1.365-3.84A5.6,5.6,0,0,1,68.79-21.6h1.65v3.27H69.39a2.049,2.049,0,0,0-1.41.39,1.741,1.741,0,0,0-.42,1.32v1.74h3.21v3.21H67.56V0ZM74.76,6.6,78.21-.99h-.9L71.52-14.88h4.17L79.86-4.41l4.35-10.47h4.08L78.84,6.6ZM89.91,0V-14.88H93.3l.33,2.01a5.283,5.283,0,0,1,1.9-1.725,5.652,5.652,0,0,1,2.745-.645,5.1,5.1,0,0,1,4.89,2.67,5.78,5.78,0,0,1,2.175-1.95,6.3,6.3,0,0,1,2.985-.72,5.692,5.692,0,0,1,4.47,1.74,7.41,7.41,0,0,1,1.56,5.1V0h-3.84V-8.04a4.985,4.985,0,0,0-.735-2.94A2.6,2.6,0,0,0,107.52-12a3.091,3.091,0,0,0-2.5,1.14,4.844,4.844,0,0,0-.945,3.18V0h-3.84V-8.04a4.909,4.909,0,0,0-.75-2.94A2.678,2.678,0,0,0,97.17-12a3.06,3.06,0,0,0-2.475,1.14,4.844,4.844,0,0,0-.945,3.18V0Zm34.44.36a8.123,8.123,0,0,1-3.99-.96,6.948,6.948,0,0,1-2.73-2.7,7.987,7.987,0,0,1-.99-4.02,8.491,8.491,0,0,1,.975-4.11,7.079,7.079,0,0,1,2.7-2.8,7.932,7.932,0,0,1,4.065-1.005,7.662,7.662,0,0,1,3.87.96,6.9,6.9,0,0,1,2.625,2.625,7.374,7.374,0,0,1,.945,3.7q0,.33-.015.69t-.045.75H120.45a3.875,3.875,0,0,0,1.215,2.73,3.818,3.818,0,0,0,2.655.99,3.49,3.49,0,0,0,1.965-.525A3.253,3.253,0,0,0,127.47-4.68h3.9a7.071,7.071,0,0,1-1.395,2.565,6.878,6.878,0,0,1-2.4,1.815A7.587,7.587,0,0,1,124.35.36Zm.03-12.48a4.089,4.089,0,0,0-2.49.8,3.684,3.684,0,0,0-1.38,2.415h7.41a3.238,3.238,0,0,0-1.08-2.34A3.592,3.592,0,0,0,124.38-12.12Z" transform="translate(1201.896 776.5)" fill="#116dff"/>
    <g id="Group_31" data-name="Group 31" transform="translate(904.261 -579.513) rotate(45)">
      <rect id="Rectangle_146" data-name="Rectangle 146" width="31.263" height="11.368" transform="translate(1129 751.758)" fill="#116dff"/>
      <rect id="Rectangle_147" data-name="Rectangle 147" width="20.842" height="11.368" transform="translate(1129 739.343)" fill="#95beff"/>
      <rect id="Rectangle_148" data-name="Rectangle 148" width="20.842" height="11.368" transform="translate(1139.421 764.174)" fill="#003588"/>
    </g>
  </g>
</svg>
